<svg xmlns="http://www.w3.org/2000/svg" xmlns:xlink="http://www.w3.org/1999/xlink" version="1.2" baseProfile="tiny" x="0px" y="0px" viewBox="0 0 128 128" xml:space="preserve"><g><path d="M115.5,26.7H94.3l-9.1-9.5c-2.1-3.8-6.2-6.1-10.6-6.1H53.9c-4.4,0-8.5,2.4-10.6,6.1l-9.2,9.5H12.5   c-6.7,0-12.2,5.3-12.2,11.9V105c0,6.6,5.4,11.9,12.2,11.9h102.9c6.7,0,12.2-5.3,12.2-11.9V38.7C127.6,32.1,122.2,26.7,115.5,26.7z    M64,101.2c-17.6,0-31.9-14.3-31.9-31.9c0-17.6,14.3-31.9,31.9-31.9c17.6,0,31.9,14.3,31.9,31.9C95.8,87,81.6,101.2,64,101.2z    M64,48.1c-11.7,0-21.2,9.5-21.2,21.2c0,11.7,9.5,21.2,21.2,21.2c11.7,0,21.2-9.5,21.2-21.2C85.2,57.6,75.7,48.1,64,48.1z"/></g></svg>